M48
METRIC,LZ,000.000
;FILE_FORMAT=3:3
;TYPE=PLATED
;Layer: PTH_Through
;EasyEDA v6.5.23, 2023-05-02 12:46:33
;10
;Gerber Generator version 0.2
;Holesize 1 = 1.016 mm
T01C1.016
;Holesize 2 = 1.067 mm
T02C1.067
%
G05
G90
T01
X015875Y088138
X015875Y090678
X018415Y088138
X018415Y090678
X020955Y088138
X020955Y090678
X023495Y088138
X023495Y090678
X026035Y088138
X026035Y090678
X028575Y088138
X028575Y090678
X031115Y088138
X031115Y090678
X033655Y088138
X033655Y090678
X036195Y088138
X036195Y090678
X038735Y088138
X038735Y090678
X041275Y088138
X041275Y090678
X043815Y088138
X043815Y090678
X046355Y088138
X046355Y090678
X048895Y088138
X048895Y090678
X051435Y088138
X051435Y090678
X053975Y088138
X053975Y090678
X056515Y088138
X056515Y090678
X059055Y088138
X059055Y090678
X061595Y088138
X061595Y090678
X064135Y088138
X064135Y090678
T02
X032893Y073914
X032893Y076454
X037973Y073914
X037973Y076454
X040513Y073914
X040513Y076454
X043053Y073914
X043053Y076454
X045593Y073914
X045593Y076454
X030353Y073914
X030353Y076454
X035433Y073914
X035433Y076454
X048133Y073914
X048133Y076454
M30
