G04 Layer: TopLayer*
G04 EasyEDA v6.5.23, 2023-05-02 12:46:33*
G04 Gerber Generator version 0.2*
G04 Scale: 100 percent, Rotated: No, Reflected: No *
G04 Dimensions in millimeters *
G04 leading zeros omitted , absolute positions ,4 integer and 5 decimal *
%FSLAX45Y45*%
%MOMM*%

%ADD10C,0.2540*%
%ADD11R,1.8796X1.8796*%
%ADD12C,1.6637*%
%ADD13R,1.6637X1.6637*%

%LPD*%
G36*
X736092Y5725871D02*
G01*
X732180Y5726684D01*
X728878Y5728868D01*
X726694Y5732170D01*
X725932Y5736031D01*
X725932Y9963912D01*
X726694Y9967823D01*
X728878Y9971074D01*
X732180Y9973310D01*
X736092Y9974072D01*
X7163917Y9974072D01*
X7167829Y9973310D01*
X7171080Y9971074D01*
X7173315Y9967823D01*
X7174077Y9963912D01*
X7174077Y5736031D01*
X7173315Y5732170D01*
X7171080Y5728868D01*
X7167829Y5726684D01*
X7163917Y5725871D01*
G37*

%LPC*%
G36*
X3285794Y7536383D02*
G01*
X3299764Y7536840D01*
X3313582Y7539075D01*
X3326993Y7543038D01*
X3339744Y7548676D01*
X3351682Y7555941D01*
X3362604Y7564678D01*
X3372358Y7574686D01*
X3380689Y7585913D01*
X3387547Y7598054D01*
X3392830Y7611008D01*
X3396335Y7624572D01*
X3398164Y7638389D01*
X3398164Y7652410D01*
X3396335Y7666228D01*
X3392830Y7679791D01*
X3387547Y7692745D01*
X3380689Y7704886D01*
X3372358Y7716113D01*
X3362604Y7726121D01*
X3351682Y7734858D01*
X3339744Y7742123D01*
X3326993Y7747762D01*
X3313582Y7751724D01*
X3299764Y7753959D01*
X3285794Y7754416D01*
X3271875Y7753096D01*
X3258261Y7749946D01*
X3245154Y7745120D01*
X3232759Y7738668D01*
X3221278Y7730693D01*
X3210966Y7721295D01*
X3201873Y7710627D01*
X3194253Y7698943D01*
X3188208Y7686344D01*
X3183788Y7673086D01*
X3181146Y7659370D01*
X3180232Y7645400D01*
X3181146Y7631430D01*
X3183788Y7617714D01*
X3188208Y7604455D01*
X3194253Y7591856D01*
X3201873Y7580172D01*
X3210966Y7569504D01*
X3221278Y7560106D01*
X3232759Y7552131D01*
X3245154Y7545679D01*
X3258261Y7540853D01*
X3271875Y7537703D01*
G37*
G36*
X3285794Y7282383D02*
G01*
X3299764Y7282840D01*
X3313582Y7285075D01*
X3326993Y7289038D01*
X3339744Y7294676D01*
X3351682Y7301941D01*
X3362604Y7310678D01*
X3372358Y7320686D01*
X3380689Y7331913D01*
X3387547Y7344054D01*
X3392830Y7357008D01*
X3396335Y7370572D01*
X3398164Y7384389D01*
X3398164Y7398410D01*
X3396335Y7412228D01*
X3392830Y7425791D01*
X3387547Y7438745D01*
X3380689Y7450886D01*
X3372358Y7462113D01*
X3362604Y7472121D01*
X3351682Y7480858D01*
X3339744Y7488123D01*
X3326993Y7493762D01*
X3313582Y7497724D01*
X3299764Y7499959D01*
X3285794Y7500416D01*
X3271875Y7499096D01*
X3258261Y7495946D01*
X3245154Y7491120D01*
X3232759Y7484668D01*
X3221278Y7476693D01*
X3210966Y7467295D01*
X3201873Y7456627D01*
X3194253Y7444943D01*
X3188208Y7432344D01*
X3183788Y7419086D01*
X3181146Y7405370D01*
X3180232Y7391400D01*
X3181146Y7377430D01*
X3183788Y7363714D01*
X3188208Y7350455D01*
X3194253Y7337856D01*
X3201873Y7326172D01*
X3210966Y7315504D01*
X3221278Y7306106D01*
X3232759Y7298131D01*
X3245154Y7291679D01*
X3258261Y7286853D01*
X3271875Y7283703D01*
G37*
G36*
X4809794Y7282383D02*
G01*
X4823764Y7282840D01*
X4837582Y7285075D01*
X4850993Y7289038D01*
X4863744Y7294676D01*
X4875682Y7301941D01*
X4886604Y7310678D01*
X4896358Y7320686D01*
X4904689Y7331913D01*
X4911547Y7344054D01*
X4916830Y7357008D01*
X4920335Y7370572D01*
X4922164Y7384389D01*
X4922164Y7398410D01*
X4920335Y7412228D01*
X4916830Y7425791D01*
X4911547Y7438745D01*
X4904689Y7450886D01*
X4896358Y7462113D01*
X4886604Y7472121D01*
X4875682Y7480858D01*
X4863744Y7488123D01*
X4850993Y7493762D01*
X4837582Y7497724D01*
X4823764Y7499959D01*
X4809794Y7500416D01*
X4795875Y7499096D01*
X4782261Y7495946D01*
X4774539Y7493101D01*
X4770729Y7492492D01*
X4767021Y7493304D01*
X4763820Y7495489D01*
X4740351Y7518958D01*
X4738116Y7522260D01*
X4737354Y7526121D01*
X4738116Y7530033D01*
X4740351Y7533335D01*
X4743653Y7535519D01*
X4747514Y7536281D01*
X4895900Y7536281D01*
X4902250Y7537043D01*
X4907686Y7538923D01*
X4912614Y7542022D01*
X4916678Y7546086D01*
X4919776Y7551013D01*
X4921656Y7556449D01*
X4922418Y7562799D01*
X4922418Y7728000D01*
X4921656Y7734350D01*
X4919776Y7739786D01*
X4916678Y7744714D01*
X4912614Y7748778D01*
X4907686Y7751876D01*
X4902250Y7753756D01*
X4895900Y7754467D01*
X4730699Y7754467D01*
X4724349Y7753756D01*
X4718913Y7751876D01*
X4713986Y7748778D01*
X4709922Y7744714D01*
X4706823Y7739786D01*
X4704943Y7734350D01*
X4704232Y7728000D01*
X4704232Y7566406D01*
X4703318Y7562291D01*
X4700879Y7558887D01*
X4697222Y7556753D01*
X4693056Y7556296D01*
X4685792Y7557008D01*
X4649216Y7557008D01*
X4645355Y7557770D01*
X4642053Y7559954D01*
X4639868Y7563205D01*
X4639056Y7567066D01*
X4639767Y7570927D01*
X4650689Y7585913D01*
X4657547Y7598054D01*
X4662830Y7611008D01*
X4666335Y7624572D01*
X4668164Y7638389D01*
X4668164Y7652410D01*
X4666335Y7666228D01*
X4662830Y7679791D01*
X4657547Y7692745D01*
X4650689Y7704886D01*
X4642358Y7716113D01*
X4632604Y7726121D01*
X4621682Y7734858D01*
X4609744Y7742123D01*
X4596993Y7747762D01*
X4583582Y7751724D01*
X4569764Y7753959D01*
X4555794Y7754416D01*
X4541875Y7753096D01*
X4528261Y7749946D01*
X4515154Y7745120D01*
X4502759Y7738668D01*
X4491278Y7730693D01*
X4480966Y7721295D01*
X4473397Y7712405D01*
X4470095Y7709865D01*
X4466082Y7708849D01*
X4461967Y7709560D01*
X4458462Y7711795D01*
X4348988Y7821269D01*
X4342790Y7826400D01*
X4336135Y7829956D01*
X4328871Y7832140D01*
X4320844Y7832953D01*
X4151172Y7832953D01*
X4147261Y7833715D01*
X4143959Y7835950D01*
X3303320Y8676589D01*
X3301136Y8679840D01*
X3300374Y8683752D01*
X3301136Y8687663D01*
X3303320Y8690914D01*
X3306622Y8693150D01*
X3310534Y8693912D01*
X3458921Y8693912D01*
X3465220Y8694623D01*
X3470706Y8696553D01*
X3475583Y8699601D01*
X3479698Y8703716D01*
X3485032Y8712555D01*
X3488436Y8714994D01*
X3492500Y8715806D01*
X3496564Y8714994D01*
X3499967Y8712555D01*
X3505301Y8703716D01*
X3509416Y8699601D01*
X3514293Y8696553D01*
X3519779Y8694623D01*
X3526078Y8693912D01*
X3712921Y8693912D01*
X3719220Y8694623D01*
X3724706Y8696553D01*
X3729583Y8699601D01*
X3733698Y8703716D01*
X3739032Y8712555D01*
X3742436Y8714994D01*
X3746500Y8715806D01*
X3750564Y8714994D01*
X3753967Y8712555D01*
X3759301Y8703716D01*
X3763416Y8699601D01*
X3768293Y8696553D01*
X3773779Y8694623D01*
X3780078Y8693912D01*
X3966921Y8693912D01*
X3973220Y8694623D01*
X3978706Y8696553D01*
X3983583Y8699601D01*
X3987698Y8703716D01*
X3993032Y8712555D01*
X3996436Y8714994D01*
X4000500Y8715806D01*
X4004564Y8714994D01*
X4007967Y8712555D01*
X4013301Y8703716D01*
X4017416Y8699601D01*
X4022293Y8696553D01*
X4027779Y8694623D01*
X4034078Y8693912D01*
X4220921Y8693912D01*
X4227220Y8694623D01*
X4232706Y8696553D01*
X4237583Y8699601D01*
X4241698Y8703716D01*
X4247032Y8712555D01*
X4250436Y8714994D01*
X4254500Y8715806D01*
X4258564Y8714994D01*
X4261967Y8712555D01*
X4267301Y8703716D01*
X4271416Y8699601D01*
X4276293Y8696553D01*
X4281779Y8694623D01*
X4288078Y8693912D01*
X4474921Y8693912D01*
X4481220Y8694623D01*
X4486706Y8696553D01*
X4491583Y8699601D01*
X4495698Y8703716D01*
X4501032Y8712555D01*
X4504436Y8714994D01*
X4508500Y8715806D01*
X4512564Y8714994D01*
X4515967Y8712555D01*
X4521301Y8703716D01*
X4525416Y8699601D01*
X4530293Y8696553D01*
X4535779Y8694623D01*
X4542078Y8693912D01*
X4582160Y8693912D01*
X4582160Y8760460D01*
X4511548Y8760460D01*
X4507636Y8761222D01*
X4504385Y8763457D01*
X4502150Y8766708D01*
X4501388Y8770620D01*
X4501388Y8856980D01*
X4502150Y8860891D01*
X4504385Y8864142D01*
X4507636Y8866378D01*
X4511548Y8867140D01*
X4582160Y8867140D01*
X4582160Y8937752D01*
X4582922Y8941663D01*
X4585157Y8944914D01*
X4588408Y8947150D01*
X4592320Y8947912D01*
X4678680Y8947912D01*
X4682591Y8947150D01*
X4685842Y8944914D01*
X4688078Y8941663D01*
X4688840Y8937752D01*
X4688840Y8867140D01*
X4759452Y8867140D01*
X4763363Y8866378D01*
X4766614Y8864142D01*
X4768850Y8860891D01*
X4769612Y8856980D01*
X4769612Y8770620D01*
X4768850Y8766708D01*
X4766614Y8763457D01*
X4763363Y8761222D01*
X4759452Y8760460D01*
X4688840Y8760460D01*
X4688840Y8693912D01*
X4728921Y8693912D01*
X4735220Y8694623D01*
X4740706Y8696553D01*
X4745583Y8699601D01*
X4749698Y8703716D01*
X4755032Y8712555D01*
X4758436Y8714994D01*
X4762500Y8715806D01*
X4766564Y8714994D01*
X4769967Y8712555D01*
X4775301Y8703716D01*
X4779416Y8699601D01*
X4784293Y8696553D01*
X4789779Y8694623D01*
X4796078Y8693912D01*
X4982921Y8693912D01*
X4989220Y8694623D01*
X4994706Y8696553D01*
X4999583Y8699601D01*
X5003698Y8703716D01*
X5009032Y8712555D01*
X5012436Y8714994D01*
X5016500Y8715806D01*
X5020564Y8714994D01*
X5023967Y8712555D01*
X5029301Y8703716D01*
X5033416Y8699601D01*
X5038293Y8696553D01*
X5043779Y8694623D01*
X5050078Y8693912D01*
X5236921Y8693912D01*
X5243220Y8694623D01*
X5248706Y8696553D01*
X5253583Y8699601D01*
X5257698Y8703716D01*
X5263032Y8712555D01*
X5266436Y8714994D01*
X5270500Y8715806D01*
X5274564Y8714994D01*
X5277967Y8712555D01*
X5283301Y8703716D01*
X5287416Y8699601D01*
X5292293Y8696553D01*
X5297779Y8694623D01*
X5304078Y8693912D01*
X5490921Y8693912D01*
X5497220Y8694623D01*
X5502706Y8696553D01*
X5507583Y8699601D01*
X5511698Y8703716D01*
X5517032Y8712555D01*
X5520436Y8714994D01*
X5524500Y8715806D01*
X5528564Y8714994D01*
X5531967Y8712555D01*
X5537301Y8703716D01*
X5541416Y8699601D01*
X5546293Y8696553D01*
X5551779Y8694623D01*
X5558078Y8693912D01*
X5744921Y8693912D01*
X5751220Y8694623D01*
X5756706Y8696553D01*
X5761583Y8699601D01*
X5765698Y8703716D01*
X5771032Y8712555D01*
X5774436Y8714994D01*
X5778500Y8715806D01*
X5782564Y8714994D01*
X5785967Y8712555D01*
X5791301Y8703716D01*
X5795416Y8699601D01*
X5800293Y8696553D01*
X5805779Y8694623D01*
X5812078Y8693912D01*
X5998921Y8693912D01*
X6005220Y8694623D01*
X6010706Y8696553D01*
X6015583Y8699601D01*
X6019698Y8703716D01*
X6025032Y8712555D01*
X6028436Y8714994D01*
X6032500Y8715806D01*
X6036564Y8714994D01*
X6039967Y8712555D01*
X6045301Y8703716D01*
X6049416Y8699601D01*
X6054293Y8696553D01*
X6059779Y8694623D01*
X6066078Y8693912D01*
X6252921Y8693912D01*
X6259220Y8694623D01*
X6264706Y8696553D01*
X6269583Y8699601D01*
X6273698Y8703716D01*
X6279032Y8712555D01*
X6282436Y8714994D01*
X6286500Y8715806D01*
X6290564Y8714994D01*
X6293967Y8712555D01*
X6299301Y8703716D01*
X6303416Y8699601D01*
X6308293Y8696553D01*
X6313779Y8694623D01*
X6320078Y8693912D01*
X6360160Y8693912D01*
X6360160Y8760460D01*
X6289548Y8760460D01*
X6285636Y8761222D01*
X6282385Y8763457D01*
X6280150Y8766708D01*
X6279388Y8770620D01*
X6279388Y8856980D01*
X6280150Y8860891D01*
X6282385Y8864142D01*
X6285636Y8866378D01*
X6289548Y8867140D01*
X6360160Y8867140D01*
X6360160Y8937752D01*
X6360922Y8941663D01*
X6363157Y8944914D01*
X6366408Y8947150D01*
X6370320Y8947912D01*
X6456680Y8947912D01*
X6460591Y8947150D01*
X6463842Y8944914D01*
X6466078Y8941663D01*
X6466840Y8937752D01*
X6466840Y8867140D01*
X6533388Y8867140D01*
X6533388Y8907221D01*
X6532676Y8913520D01*
X6530746Y8919006D01*
X6527698Y8923883D01*
X6523583Y8927998D01*
X6514744Y8933332D01*
X6512306Y8936736D01*
X6511493Y8940800D01*
X6512306Y8944864D01*
X6514744Y8948267D01*
X6523583Y8953601D01*
X6527698Y8957716D01*
X6530746Y8962593D01*
X6532676Y8968079D01*
X6533388Y8974378D01*
X6533388Y9161221D01*
X6532676Y9167520D01*
X6530746Y9173006D01*
X6527698Y9177883D01*
X6523583Y9181998D01*
X6518706Y9185046D01*
X6513220Y9186976D01*
X6506921Y9187688D01*
X6320078Y9187688D01*
X6313779Y9186976D01*
X6308293Y9185046D01*
X6303416Y9181998D01*
X6299301Y9177883D01*
X6293967Y9169044D01*
X6290564Y9166606D01*
X6286500Y9165793D01*
X6282436Y9166606D01*
X6279032Y9169044D01*
X6273698Y9177883D01*
X6269583Y9181998D01*
X6264706Y9185046D01*
X6259220Y9186976D01*
X6252921Y9187688D01*
X6066078Y9187688D01*
X6059779Y9186976D01*
X6054293Y9185046D01*
X6049416Y9181998D01*
X6045301Y9177883D01*
X6039967Y9169044D01*
X6036564Y9166606D01*
X6032500Y9165793D01*
X6028436Y9166606D01*
X6025032Y9169044D01*
X6019698Y9177883D01*
X6015583Y9181998D01*
X6010706Y9185046D01*
X6005220Y9186976D01*
X5998921Y9187688D01*
X5812078Y9187688D01*
X5805779Y9186976D01*
X5800293Y9185046D01*
X5795416Y9181998D01*
X5791301Y9177883D01*
X5785967Y9169044D01*
X5782564Y9166606D01*
X5778500Y9165793D01*
X5774436Y9166606D01*
X5771032Y9169044D01*
X5765698Y9177883D01*
X5761583Y9181998D01*
X5756706Y9185046D01*
X5751220Y9186976D01*
X5744921Y9187688D01*
X5704840Y9187688D01*
X5704840Y9121140D01*
X5775452Y9121140D01*
X5779363Y9120378D01*
X5782614Y9118142D01*
X5784850Y9114891D01*
X5785612Y9110980D01*
X5785612Y9024620D01*
X5784850Y9020708D01*
X5782614Y9017457D01*
X5779363Y9015222D01*
X5775452Y9014460D01*
X5704840Y9014460D01*
X5704840Y8943848D01*
X5704078Y8939936D01*
X5701842Y8936685D01*
X5698591Y8934450D01*
X5694680Y8933688D01*
X5608320Y8933688D01*
X5604408Y8934450D01*
X5601157Y8936685D01*
X5598922Y8939936D01*
X5598160Y8943848D01*
X5598160Y9014460D01*
X5527548Y9014460D01*
X5523636Y9015222D01*
X5520385Y9017457D01*
X5518150Y9020708D01*
X5517388Y9024620D01*
X5517388Y9110980D01*
X5518150Y9114891D01*
X5520385Y9118142D01*
X5523636Y9120378D01*
X5527548Y9121140D01*
X5598160Y9121140D01*
X5598160Y9187688D01*
X5558078Y9187688D01*
X5551779Y9186976D01*
X5546293Y9185046D01*
X5541416Y9181998D01*
X5537301Y9177883D01*
X5531967Y9169044D01*
X5528564Y9166606D01*
X5524500Y9165793D01*
X5520436Y9166606D01*
X5517032Y9169044D01*
X5511698Y9177883D01*
X5507583Y9181998D01*
X5502706Y9185046D01*
X5497220Y9186976D01*
X5490921Y9187688D01*
X5304078Y9187688D01*
X5297779Y9186976D01*
X5292293Y9185046D01*
X5287416Y9181998D01*
X5283301Y9177883D01*
X5277967Y9169044D01*
X5274564Y9166606D01*
X5270500Y9165793D01*
X5266436Y9166606D01*
X5263032Y9169044D01*
X5257698Y9177883D01*
X5253583Y9181998D01*
X5248706Y9185046D01*
X5243220Y9186976D01*
X5236921Y9187688D01*
X5196840Y9187688D01*
X5196840Y9121140D01*
X5267452Y9121140D01*
X5271363Y9120378D01*
X5274614Y9118142D01*
X5276850Y9114891D01*
X5277612Y9110980D01*
X5277612Y9024620D01*
X5276850Y9020708D01*
X5274614Y9017457D01*
X5271363Y9015222D01*
X5267452Y9014460D01*
X5196840Y9014460D01*
X5196840Y8943848D01*
X5196078Y8939936D01*
X5193842Y8936685D01*
X5190591Y8934450D01*
X5186680Y8933688D01*
X5100320Y8933688D01*
X5096408Y8934450D01*
X5093157Y8936685D01*
X5090922Y8939936D01*
X5090160Y8943848D01*
X5090160Y9014460D01*
X5019548Y9014460D01*
X5015636Y9015222D01*
X5012385Y9017457D01*
X5010150Y9020708D01*
X5009388Y9024620D01*
X5009388Y9110980D01*
X5010150Y9114891D01*
X5012385Y9118142D01*
X5015636Y9120378D01*
X5019548Y9121140D01*
X5090160Y9121140D01*
X5090160Y9187688D01*
X5050078Y9187688D01*
X5043779Y9186976D01*
X5038293Y9185046D01*
X5033416Y9181998D01*
X5029301Y9177883D01*
X5023967Y9169044D01*
X5020564Y9166606D01*
X5016500Y9165793D01*
X5012436Y9166606D01*
X5009032Y9169044D01*
X5003698Y9177883D01*
X4999583Y9181998D01*
X4994706Y9185046D01*
X4989220Y9186976D01*
X4982921Y9187688D01*
X4796078Y9187688D01*
X4789779Y9186976D01*
X4784293Y9185046D01*
X4779416Y9181998D01*
X4775301Y9177883D01*
X4769967Y9169044D01*
X4766564Y9166606D01*
X4762500Y9165793D01*
X4758436Y9166606D01*
X4755032Y9169044D01*
X4749698Y9177883D01*
X4745583Y9181998D01*
X4740706Y9185046D01*
X4735220Y9186976D01*
X4728921Y9187688D01*
X4542078Y9187688D01*
X4535779Y9186976D01*
X4530293Y9185046D01*
X4525416Y9181998D01*
X4521301Y9177883D01*
X4515967Y9169044D01*
X4512564Y9166606D01*
X4508500Y9165793D01*
X4504436Y9166606D01*
X4501032Y9169044D01*
X4495698Y9177883D01*
X4491583Y9181998D01*
X4486706Y9185046D01*
X4481220Y9186976D01*
X4474921Y9187688D01*
X4288078Y9187688D01*
X4281779Y9186976D01*
X4276293Y9185046D01*
X4271416Y9181998D01*
X4267301Y9177883D01*
X4261967Y9169044D01*
X4258564Y9166606D01*
X4254500Y9165793D01*
X4250436Y9166606D01*
X4247032Y9169044D01*
X4241698Y9177883D01*
X4237583Y9181998D01*
X4232706Y9185046D01*
X4227220Y9186976D01*
X4220921Y9187688D01*
X4034078Y9187688D01*
X4027779Y9186976D01*
X4022293Y9185046D01*
X4017416Y9181998D01*
X4013301Y9177883D01*
X4007967Y9169044D01*
X4004564Y9166606D01*
X4000500Y9165793D01*
X3996436Y9166606D01*
X3993032Y9169044D01*
X3987698Y9177883D01*
X3983583Y9181998D01*
X3978706Y9185046D01*
X3973220Y9186976D01*
X3966921Y9187688D01*
X3926840Y9187688D01*
X3926840Y9121140D01*
X3997451Y9121140D01*
X4001363Y9120378D01*
X4004614Y9118142D01*
X4006850Y9114891D01*
X4007612Y9110980D01*
X4007612Y9024620D01*
X4006850Y9020708D01*
X4004614Y9017457D01*
X4001363Y9015222D01*
X3997451Y9014460D01*
X3926840Y9014460D01*
X3926840Y8943848D01*
X3926078Y8939936D01*
X3923842Y8936685D01*
X3920591Y8934450D01*
X3916679Y8933688D01*
X3830320Y8933688D01*
X3826408Y8934450D01*
X3823157Y8936685D01*
X3820922Y8939936D01*
X3820160Y8943848D01*
X3820160Y9014460D01*
X3749548Y9014460D01*
X3745636Y9015222D01*
X3742385Y9017457D01*
X3740150Y9020708D01*
X3739387Y9024620D01*
X3739387Y9110980D01*
X3740150Y9114891D01*
X3742385Y9118142D01*
X3745636Y9120378D01*
X3749548Y9121140D01*
X3820160Y9121140D01*
X3820160Y9187688D01*
X3780078Y9187688D01*
X3773779Y9186976D01*
X3768293Y9185046D01*
X3763416Y9181998D01*
X3759301Y9177883D01*
X3753967Y9169044D01*
X3750564Y9166606D01*
X3746500Y9165793D01*
X3742436Y9166606D01*
X3739032Y9169044D01*
X3733698Y9177883D01*
X3729583Y9181998D01*
X3724706Y9185046D01*
X3719220Y9186976D01*
X3712921Y9187688D01*
X3526078Y9187688D01*
X3519779Y9186976D01*
X3514293Y9185046D01*
X3509416Y9181998D01*
X3505301Y9177883D01*
X3499967Y9169044D01*
X3496564Y9166606D01*
X3492500Y9165793D01*
X3488436Y9166606D01*
X3485032Y9169044D01*
X3479698Y9177883D01*
X3475583Y9181998D01*
X3470706Y9185046D01*
X3465220Y9186976D01*
X3458921Y9187688D01*
X3272078Y9187688D01*
X3265779Y9186976D01*
X3260293Y9185046D01*
X3255416Y9181998D01*
X3251301Y9177883D01*
X3245967Y9169044D01*
X3242564Y9166606D01*
X3238500Y9165793D01*
X3234436Y9166606D01*
X3231032Y9169044D01*
X3225698Y9177883D01*
X3221583Y9181998D01*
X3216706Y9185046D01*
X3211220Y9186976D01*
X3204921Y9187688D01*
X3164840Y9187688D01*
X3164840Y9121140D01*
X3235452Y9121140D01*
X3239363Y9120378D01*
X3242614Y9118142D01*
X3244850Y9114891D01*
X3245612Y9110980D01*
X3245612Y9024620D01*
X3244850Y9020708D01*
X3242614Y9017457D01*
X3239363Y9015222D01*
X3235452Y9014460D01*
X3164840Y9014460D01*
X3164840Y8943848D01*
X3164078Y8939936D01*
X3161842Y8936685D01*
X3158591Y8934450D01*
X3154680Y8933688D01*
X3068320Y8933688D01*
X3064408Y8934450D01*
X3061157Y8936685D01*
X3058922Y8939936D01*
X3058160Y8943848D01*
X3058160Y9014460D01*
X2987548Y9014460D01*
X2983636Y9015222D01*
X2980385Y9017457D01*
X2978150Y9020708D01*
X2977388Y9024620D01*
X2977388Y9110980D01*
X2978150Y9114891D01*
X2980385Y9118142D01*
X2983636Y9120378D01*
X2987548Y9121140D01*
X3058160Y9121140D01*
X3058160Y9187688D01*
X3018078Y9187688D01*
X3011779Y9186976D01*
X3006293Y9185046D01*
X3001416Y9181998D01*
X2997301Y9177883D01*
X2991967Y9169044D01*
X2988564Y9166606D01*
X2984500Y9165793D01*
X2980436Y9166606D01*
X2977032Y9169044D01*
X2971698Y9177883D01*
X2967583Y9181998D01*
X2962706Y9185046D01*
X2957220Y9186976D01*
X2950921Y9187688D01*
X2764078Y9187688D01*
X2757779Y9186976D01*
X2752293Y9185046D01*
X2747416Y9181998D01*
X2743301Y9177883D01*
X2737967Y9169044D01*
X2734564Y9166606D01*
X2730500Y9165793D01*
X2726436Y9166606D01*
X2723032Y9169044D01*
X2717698Y9177883D01*
X2713583Y9181998D01*
X2708706Y9185046D01*
X2703220Y9186976D01*
X2696921Y9187688D01*
X2510078Y9187688D01*
X2503779Y9186976D01*
X2498293Y9185046D01*
X2493416Y9181998D01*
X2489301Y9177883D01*
X2483967Y9169044D01*
X2480564Y9166606D01*
X2476500Y9165793D01*
X2472436Y9166606D01*
X2469032Y9169044D01*
X2463698Y9177883D01*
X2459583Y9181998D01*
X2454706Y9185046D01*
X2449220Y9186976D01*
X2442921Y9187688D01*
X2256078Y9187688D01*
X2249779Y9186976D01*
X2244293Y9185046D01*
X2239416Y9181998D01*
X2235301Y9177883D01*
X2229967Y9169044D01*
X2226564Y9166606D01*
X2222500Y9165793D01*
X2218436Y9166606D01*
X2215032Y9169044D01*
X2209698Y9177883D01*
X2205583Y9181998D01*
X2200706Y9185046D01*
X2195220Y9186976D01*
X2188921Y9187688D01*
X2148840Y9187688D01*
X2148840Y9121140D01*
X2219452Y9121140D01*
X2223363Y9120378D01*
X2226614Y9118142D01*
X2228850Y9114891D01*
X2229612Y9110980D01*
X2229612Y9024620D01*
X2228850Y9020708D01*
X2226614Y9017457D01*
X2223363Y9015222D01*
X2219452Y9014460D01*
X2148840Y9014460D01*
X2148840Y8943848D01*
X2148078Y8939936D01*
X2145842Y8936685D01*
X2142591Y8934450D01*
X2138680Y8933688D01*
X2052320Y8933688D01*
X2048408Y8934450D01*
X2045157Y8936685D01*
X2042922Y8939936D01*
X2042160Y8943848D01*
X2042160Y9014460D01*
X1971548Y9014460D01*
X1967636Y9015222D01*
X1964385Y9017457D01*
X1962150Y9020708D01*
X1961388Y9024620D01*
X1961388Y9110980D01*
X1962150Y9114891D01*
X1964385Y9118142D01*
X1967636Y9120378D01*
X1971548Y9121140D01*
X2042160Y9121140D01*
X2042160Y9187688D01*
X2002078Y9187688D01*
X1995779Y9186976D01*
X1990293Y9185046D01*
X1985416Y9181998D01*
X1981301Y9177883D01*
X1975967Y9169044D01*
X1972564Y9166606D01*
X1968500Y9165793D01*
X1964436Y9166606D01*
X1961032Y9169044D01*
X1955698Y9177883D01*
X1951583Y9181998D01*
X1946706Y9185046D01*
X1941220Y9186976D01*
X1934921Y9187688D01*
X1748078Y9187688D01*
X1741779Y9186976D01*
X1736293Y9185046D01*
X1731416Y9181998D01*
X1727301Y9177883D01*
X1721967Y9169044D01*
X1718564Y9166606D01*
X1714500Y9165793D01*
X1710436Y9166606D01*
X1707032Y9169044D01*
X1701698Y9177883D01*
X1697583Y9181998D01*
X1692706Y9185046D01*
X1687220Y9186976D01*
X1680921Y9187688D01*
X1494078Y9187688D01*
X1487779Y9186976D01*
X1482293Y9185046D01*
X1477416Y9181998D01*
X1473301Y9177883D01*
X1470253Y9173006D01*
X1468323Y9167520D01*
X1467612Y9161221D01*
X1467612Y8974378D01*
X1468323Y8968079D01*
X1470253Y8962593D01*
X1473301Y8957716D01*
X1477416Y8953601D01*
X1486255Y8948267D01*
X1488694Y8944864D01*
X1489506Y8940800D01*
X1488694Y8936736D01*
X1486255Y8933332D01*
X1477416Y8927998D01*
X1473301Y8923883D01*
X1470253Y8919006D01*
X1468323Y8913520D01*
X1467612Y8907221D01*
X1467612Y8720378D01*
X1468323Y8714079D01*
X1470253Y8708593D01*
X1473301Y8703716D01*
X1477416Y8699601D01*
X1482293Y8696553D01*
X1487779Y8694623D01*
X1494078Y8693912D01*
X1680921Y8693912D01*
X1687220Y8694623D01*
X1692706Y8696553D01*
X1697583Y8699601D01*
X1701698Y8703716D01*
X1707032Y8712555D01*
X1710436Y8714994D01*
X1714500Y8715806D01*
X1718564Y8714994D01*
X1721967Y8712555D01*
X1727301Y8703716D01*
X1731416Y8699601D01*
X1736293Y8696553D01*
X1741779Y8694623D01*
X1748078Y8693912D01*
X1934921Y8693912D01*
X1941220Y8694623D01*
X1946706Y8696553D01*
X1951583Y8699601D01*
X1955698Y8703716D01*
X1961032Y8712555D01*
X1964436Y8714994D01*
X1968500Y8715806D01*
X1972564Y8714994D01*
X1975967Y8712555D01*
X1981301Y8703716D01*
X1985416Y8699601D01*
X1990293Y8696553D01*
X1995779Y8694623D01*
X2002078Y8693912D01*
X2188921Y8693912D01*
X2195220Y8694623D01*
X2200706Y8696553D01*
X2205583Y8699601D01*
X2209698Y8703716D01*
X2215032Y8712555D01*
X2218436Y8714994D01*
X2222500Y8715806D01*
X2226564Y8714994D01*
X2229967Y8712555D01*
X2235301Y8703716D01*
X2239416Y8699601D01*
X2244293Y8696553D01*
X2249779Y8694623D01*
X2256078Y8693912D01*
X2442921Y8693912D01*
X2449220Y8694623D01*
X2454706Y8696553D01*
X2459583Y8699601D01*
X2463698Y8703716D01*
X2469032Y8712555D01*
X2472436Y8714994D01*
X2476500Y8715806D01*
X2480564Y8714994D01*
X2483967Y8712555D01*
X2489301Y8703716D01*
X2493416Y8699601D01*
X2498293Y8696553D01*
X2503779Y8694623D01*
X2510078Y8693912D01*
X2550160Y8693912D01*
X2550160Y8760460D01*
X2479548Y8760460D01*
X2475636Y8761222D01*
X2472385Y8763457D01*
X2470150Y8766708D01*
X2469388Y8770620D01*
X2469388Y8856980D01*
X2470150Y8860891D01*
X2472385Y8864142D01*
X2475636Y8866378D01*
X2479548Y8867140D01*
X2550160Y8867140D01*
X2550160Y8937752D01*
X2550922Y8941663D01*
X2553157Y8944914D01*
X2556408Y8947150D01*
X2560320Y8947912D01*
X2646680Y8947912D01*
X2650591Y8947150D01*
X2653842Y8944914D01*
X2656078Y8941663D01*
X2656840Y8937752D01*
X2656840Y8867140D01*
X2727452Y8867140D01*
X2731363Y8866378D01*
X2734614Y8864142D01*
X2736850Y8860891D01*
X2737612Y8856980D01*
X2737612Y8770620D01*
X2736850Y8766708D01*
X2734614Y8763457D01*
X2731363Y8761222D01*
X2727452Y8760460D01*
X2656840Y8760460D01*
X2656840Y8693912D01*
X2696921Y8693912D01*
X2703220Y8694623D01*
X2708706Y8696553D01*
X2713583Y8699601D01*
X2717698Y8703716D01*
X2723032Y8712555D01*
X2726436Y8714994D01*
X2730500Y8715806D01*
X2734564Y8714994D01*
X2737967Y8712555D01*
X2743301Y8703716D01*
X2747416Y8699601D01*
X2752293Y8696553D01*
X2757779Y8694623D01*
X2764078Y8693912D01*
X2950921Y8693912D01*
X2957220Y8694623D01*
X2962706Y8696553D01*
X2967583Y8699601D01*
X2971698Y8703716D01*
X2977032Y8712555D01*
X2980436Y8714994D01*
X2984500Y8715806D01*
X2988564Y8714994D01*
X2991967Y8712555D01*
X2997301Y8703716D01*
X3001416Y8699601D01*
X3006293Y8696553D01*
X3011779Y8694623D01*
X3018078Y8693912D01*
X3185464Y8693912D01*
X3189122Y8693251D01*
X3192322Y8691270D01*
X3194558Y8688324D01*
X3197809Y8677097D01*
X3201365Y8670442D01*
X3206496Y8664194D01*
X4103319Y7767421D01*
X4109516Y7762290D01*
X4116222Y7758734D01*
X4123436Y7756550D01*
X4131462Y7755737D01*
X4240885Y7755737D01*
X4245051Y7754823D01*
X4248505Y7752334D01*
X4250588Y7748625D01*
X4250994Y7744409D01*
X4249623Y7740345D01*
X4246727Y7737246D01*
X4237278Y7730693D01*
X4226966Y7721295D01*
X4217873Y7710627D01*
X4210253Y7698943D01*
X4204208Y7686344D01*
X4199788Y7673086D01*
X4197146Y7659370D01*
X4196232Y7645400D01*
X4197146Y7631430D01*
X4199788Y7617714D01*
X4204208Y7604455D01*
X4210253Y7591856D01*
X4217873Y7580172D01*
X4226966Y7569504D01*
X4237278Y7560106D01*
X4248759Y7552131D01*
X4261154Y7545679D01*
X4274261Y7540853D01*
X4287875Y7537703D01*
X4301794Y7536383D01*
X4315764Y7536840D01*
X4329582Y7539075D01*
X4342993Y7543038D01*
X4355744Y7548676D01*
X4367682Y7555941D01*
X4378604Y7564678D01*
X4388815Y7575194D01*
X4392371Y7577581D01*
X4396536Y7578293D01*
X4400651Y7577226D01*
X4404004Y7574584D01*
X4405376Y7572908D01*
X4486808Y7491475D01*
X4488637Y7489952D01*
X4491329Y7486599D01*
X4492345Y7482382D01*
X4491532Y7478115D01*
X4488992Y7474610D01*
X4480966Y7467295D01*
X4471873Y7456627D01*
X4464253Y7444943D01*
X4461560Y7439355D01*
X4511344Y7439355D01*
X4511344Y7469631D01*
X4512106Y7473543D01*
X4514342Y7476794D01*
X4517644Y7479030D01*
X4521504Y7479792D01*
X4597095Y7479792D01*
X4600956Y7479030D01*
X4604258Y7476794D01*
X4606493Y7473543D01*
X4607255Y7469631D01*
X4607255Y7439355D01*
X4657242Y7439355D01*
X4650689Y7450886D01*
X4641900Y7462570D01*
X4639767Y7465872D01*
X4639056Y7469733D01*
X4639868Y7473594D01*
X4642053Y7476845D01*
X4645355Y7479030D01*
X4649216Y7479792D01*
X4666081Y7479792D01*
X4669993Y7479030D01*
X4673295Y7476794D01*
X4709160Y7440930D01*
X4711242Y7437881D01*
X4712106Y7434275D01*
X4711598Y7430566D01*
X4707788Y7419086D01*
X4705146Y7405370D01*
X4704232Y7391400D01*
X4705146Y7377430D01*
X4707788Y7363714D01*
X4712208Y7350455D01*
X4718253Y7337856D01*
X4725873Y7326172D01*
X4734966Y7315504D01*
X4745278Y7306106D01*
X4756759Y7298131D01*
X4769154Y7291679D01*
X4782261Y7286853D01*
X4795875Y7283703D01*
G37*
G36*
X4099255Y7293609D02*
G01*
X4101744Y7294676D01*
X4113682Y7301941D01*
X4124604Y7310678D01*
X4134358Y7320686D01*
X4142689Y7331913D01*
X4149242Y7343444D01*
X4099255Y7343444D01*
G37*
G36*
X3083255Y7293609D02*
G01*
X3085744Y7294676D01*
X3097682Y7301941D01*
X3108604Y7310678D01*
X3118358Y7320686D01*
X3126689Y7331913D01*
X3133242Y7343444D01*
X3083255Y7343444D01*
G37*
G36*
X4607255Y7293609D02*
G01*
X4609744Y7294676D01*
X4621682Y7301941D01*
X4632604Y7310678D01*
X4642358Y7320686D01*
X4650689Y7331913D01*
X4657242Y7343444D01*
X4607255Y7343444D01*
G37*
G36*
X3591255Y7293609D02*
G01*
X3593744Y7294676D01*
X3605682Y7301941D01*
X3616604Y7310678D01*
X3626358Y7320686D01*
X3634689Y7331913D01*
X3641242Y7343444D01*
X3591255Y7343444D01*
G37*
G36*
X2987344Y7293660D02*
G01*
X2987344Y7343444D01*
X2937560Y7343444D01*
X2940253Y7337856D01*
X2947873Y7326172D01*
X2956966Y7315504D01*
X2967278Y7306106D01*
X2978759Y7298131D01*
G37*
G36*
X4003344Y7293660D02*
G01*
X4003344Y7343444D01*
X3953560Y7343444D01*
X3956253Y7337856D01*
X3963873Y7326172D01*
X3972966Y7315504D01*
X3983278Y7306106D01*
X3994759Y7298131D01*
G37*
G36*
X4511344Y7293660D02*
G01*
X4511344Y7343444D01*
X4461560Y7343444D01*
X4464253Y7337856D01*
X4471873Y7326172D01*
X4480966Y7315504D01*
X4491278Y7306106D01*
X4502759Y7298131D01*
G37*
G36*
X3495344Y7293660D02*
G01*
X3495344Y7343444D01*
X3445560Y7343444D01*
X3448253Y7337856D01*
X3455873Y7326172D01*
X3464966Y7315504D01*
X3475278Y7306106D01*
X3486759Y7298131D01*
G37*
G36*
X3641293Y7439202D02*
G01*
X3634689Y7450886D01*
X3626358Y7462113D01*
X3616604Y7472121D01*
X3605682Y7480858D01*
X3593744Y7488123D01*
X3591255Y7489190D01*
X3591255Y7439304D01*
G37*
G36*
X3133293Y7439202D02*
G01*
X3126689Y7450886D01*
X3118358Y7462113D01*
X3108604Y7472121D01*
X3097682Y7480858D01*
X3085744Y7488123D01*
X3083255Y7489190D01*
X3083255Y7439304D01*
G37*
G36*
X3953560Y7439355D02*
G01*
X4003344Y7439355D01*
X4003344Y7489139D01*
X3994759Y7484668D01*
X3983278Y7476693D01*
X3972966Y7467295D01*
X3963873Y7456627D01*
X3956253Y7444943D01*
G37*
G36*
X2937560Y7439355D02*
G01*
X2987344Y7439355D01*
X2987344Y7489139D01*
X2978759Y7484668D01*
X2967278Y7476693D01*
X2956966Y7467295D01*
X2947873Y7456627D01*
X2940253Y7444943D01*
G37*
G36*
X3445560Y7439355D02*
G01*
X3495344Y7439355D01*
X3495344Y7489139D01*
X3486759Y7484668D01*
X3475278Y7476693D01*
X3464966Y7467295D01*
X3455873Y7456627D01*
X3448253Y7444943D01*
G37*
G36*
X4099255Y7439355D02*
G01*
X4149242Y7439355D01*
X4142689Y7450886D01*
X4134358Y7462113D01*
X4124604Y7472121D01*
X4113682Y7480858D01*
X4101744Y7488123D01*
X4099255Y7489190D01*
G37*
G36*
X4047794Y7536383D02*
G01*
X4061764Y7536840D01*
X4075582Y7539075D01*
X4088993Y7543038D01*
X4101744Y7548676D01*
X4113682Y7555941D01*
X4124604Y7564678D01*
X4134358Y7574686D01*
X4142689Y7585913D01*
X4149547Y7598054D01*
X4154830Y7611008D01*
X4158335Y7624572D01*
X4160164Y7638389D01*
X4160164Y7652410D01*
X4158335Y7666228D01*
X4154830Y7679791D01*
X4149547Y7692745D01*
X4142689Y7704886D01*
X4134358Y7716113D01*
X4124604Y7726121D01*
X4113682Y7734858D01*
X4101744Y7742123D01*
X4088993Y7747762D01*
X4075582Y7751724D01*
X4061764Y7753959D01*
X4047794Y7754416D01*
X4033875Y7753096D01*
X4020261Y7749946D01*
X4007154Y7745120D01*
X3994759Y7738668D01*
X3983278Y7730693D01*
X3972966Y7721295D01*
X3963873Y7710627D01*
X3956253Y7698943D01*
X3950208Y7686344D01*
X3945788Y7673086D01*
X3943146Y7659370D01*
X3942232Y7645400D01*
X3943146Y7631430D01*
X3945788Y7617714D01*
X3950208Y7604455D01*
X3956253Y7591856D01*
X3963873Y7580172D01*
X3972966Y7569504D01*
X3983278Y7560106D01*
X3994759Y7552131D01*
X4007154Y7545679D01*
X4020261Y7540853D01*
X4033875Y7537703D01*
G37*
G36*
X3031794Y7536383D02*
G01*
X3045764Y7536840D01*
X3059582Y7539075D01*
X3072993Y7543038D01*
X3085744Y7548676D01*
X3097682Y7555941D01*
X3108604Y7564678D01*
X3118358Y7574686D01*
X3126689Y7585913D01*
X3133547Y7598054D01*
X3138830Y7611008D01*
X3142335Y7624572D01*
X3144164Y7638389D01*
X3144164Y7652410D01*
X3142335Y7666228D01*
X3138830Y7679791D01*
X3133547Y7692745D01*
X3126689Y7704886D01*
X3118358Y7716113D01*
X3108604Y7726121D01*
X3097682Y7734858D01*
X3085744Y7742123D01*
X3072993Y7747762D01*
X3059582Y7751724D01*
X3045764Y7753959D01*
X3031794Y7754416D01*
X3017875Y7753096D01*
X3004261Y7749946D01*
X2991154Y7745120D01*
X2978759Y7738668D01*
X2967278Y7730693D01*
X2956966Y7721295D01*
X2947873Y7710627D01*
X2940253Y7698943D01*
X2934208Y7686344D01*
X2929788Y7673086D01*
X2927146Y7659370D01*
X2926232Y7645400D01*
X2927146Y7631430D01*
X2929788Y7617714D01*
X2934208Y7604455D01*
X2940253Y7591856D01*
X2947873Y7580172D01*
X2956966Y7569504D01*
X2967278Y7560106D01*
X2978759Y7552131D01*
X2991154Y7545679D01*
X3004261Y7540853D01*
X3017875Y7537703D01*
G37*
G36*
X3793794Y7282383D02*
G01*
X3807764Y7282840D01*
X3821582Y7285075D01*
X3834993Y7289038D01*
X3847744Y7294676D01*
X3859682Y7301941D01*
X3870604Y7310678D01*
X3880358Y7320686D01*
X3888689Y7331913D01*
X3895547Y7344054D01*
X3900830Y7357008D01*
X3904335Y7370572D01*
X3906164Y7384389D01*
X3906164Y7398410D01*
X3904335Y7412228D01*
X3900830Y7425791D01*
X3895547Y7438745D01*
X3888689Y7450886D01*
X3880358Y7462113D01*
X3870604Y7472121D01*
X3859682Y7480858D01*
X3847744Y7488123D01*
X3834993Y7493762D01*
X3821582Y7497724D01*
X3807764Y7499959D01*
X3793794Y7500416D01*
X3779875Y7499096D01*
X3766261Y7495946D01*
X3753154Y7491120D01*
X3740759Y7484668D01*
X3729278Y7476693D01*
X3718966Y7467295D01*
X3709873Y7456627D01*
X3702253Y7444943D01*
X3696208Y7432344D01*
X3691788Y7419086D01*
X3689146Y7405370D01*
X3688232Y7391400D01*
X3689146Y7377430D01*
X3691788Y7363714D01*
X3696208Y7350455D01*
X3702253Y7337856D01*
X3709873Y7326172D01*
X3718966Y7315504D01*
X3729278Y7306106D01*
X3740759Y7298131D01*
X3753154Y7291679D01*
X3766261Y7286853D01*
X3779875Y7283703D01*
G37*
G36*
X3793794Y7536383D02*
G01*
X3807764Y7536840D01*
X3821582Y7539075D01*
X3834993Y7543038D01*
X3847744Y7548676D01*
X3859682Y7555941D01*
X3870604Y7564678D01*
X3880358Y7574686D01*
X3888689Y7585913D01*
X3895547Y7598054D01*
X3900830Y7611008D01*
X3904335Y7624572D01*
X3906164Y7638389D01*
X3906164Y7652410D01*
X3904335Y7666228D01*
X3900830Y7679791D01*
X3895547Y7692745D01*
X3888689Y7704886D01*
X3880358Y7716113D01*
X3870604Y7726121D01*
X3859682Y7734858D01*
X3847744Y7742123D01*
X3834993Y7747762D01*
X3821582Y7751724D01*
X3807764Y7753959D01*
X3793794Y7754416D01*
X3779875Y7753096D01*
X3766261Y7749946D01*
X3753154Y7745120D01*
X3740759Y7738668D01*
X3729278Y7730693D01*
X3718966Y7721295D01*
X3709873Y7710627D01*
X3702253Y7698943D01*
X3696208Y7686344D01*
X3691788Y7673086D01*
X3689146Y7659370D01*
X3688232Y7645400D01*
X3689146Y7631430D01*
X3691788Y7617714D01*
X3696208Y7604455D01*
X3702253Y7591856D01*
X3709873Y7580172D01*
X3718966Y7569504D01*
X3729278Y7560106D01*
X3740759Y7552131D01*
X3753154Y7545679D01*
X3766261Y7540853D01*
X3779875Y7537703D01*
G37*
G36*
X3539794Y7536383D02*
G01*
X3553764Y7536840D01*
X3567582Y7539075D01*
X3580993Y7543038D01*
X3593744Y7548676D01*
X3605682Y7555941D01*
X3616604Y7564678D01*
X3626358Y7574686D01*
X3634689Y7585913D01*
X3641547Y7598054D01*
X3646830Y7611008D01*
X3650335Y7624572D01*
X3652164Y7638389D01*
X3652164Y7652410D01*
X3650335Y7666228D01*
X3646830Y7679791D01*
X3641547Y7692745D01*
X3634689Y7704886D01*
X3626358Y7716113D01*
X3616604Y7726121D01*
X3605682Y7734858D01*
X3593744Y7742123D01*
X3580993Y7747762D01*
X3567582Y7751724D01*
X3553764Y7753959D01*
X3539794Y7754416D01*
X3525875Y7753096D01*
X3512261Y7749946D01*
X3499154Y7745120D01*
X3486759Y7738668D01*
X3475278Y7730693D01*
X3464966Y7721295D01*
X3455873Y7710627D01*
X3448253Y7698943D01*
X3442208Y7686344D01*
X3437788Y7673086D01*
X3435146Y7659370D01*
X3434232Y7645400D01*
X3435146Y7631430D01*
X3437788Y7617714D01*
X3442208Y7604455D01*
X3448253Y7591856D01*
X3455873Y7580172D01*
X3464966Y7569504D01*
X3475278Y7560106D01*
X3486759Y7552131D01*
X3499154Y7545679D01*
X3512261Y7540853D01*
X3525875Y7537703D01*
G37*
G36*
X6466840Y8693912D02*
G01*
X6506921Y8693912D01*
X6513220Y8694623D01*
X6518706Y8696553D01*
X6523583Y8699601D01*
X6527698Y8703716D01*
X6530746Y8708593D01*
X6532676Y8714079D01*
X6533388Y8720378D01*
X6533388Y8760460D01*
X6466840Y8760460D01*
G37*
G36*
X4301794Y7282383D02*
G01*
X4315764Y7282840D01*
X4329582Y7285075D01*
X4342993Y7289038D01*
X4355744Y7294676D01*
X4367682Y7301941D01*
X4378604Y7310678D01*
X4388358Y7320686D01*
X4396689Y7331913D01*
X4403547Y7344054D01*
X4408830Y7357008D01*
X4412335Y7370572D01*
X4414164Y7384389D01*
X4414164Y7398410D01*
X4412335Y7412228D01*
X4408830Y7425791D01*
X4403547Y7438745D01*
X4396689Y7450886D01*
X4388358Y7462113D01*
X4378604Y7472121D01*
X4367682Y7480858D01*
X4355744Y7488123D01*
X4342993Y7493762D01*
X4329582Y7497724D01*
X4315764Y7499959D01*
X4301794Y7500416D01*
X4287875Y7499096D01*
X4274261Y7495946D01*
X4261154Y7491120D01*
X4248759Y7484668D01*
X4237278Y7476693D01*
X4226966Y7467295D01*
X4217873Y7456627D01*
X4210253Y7444943D01*
X4204208Y7432344D01*
X4199788Y7419086D01*
X4197146Y7405370D01*
X4196232Y7391400D01*
X4197146Y7377430D01*
X4199788Y7363714D01*
X4204208Y7350455D01*
X4210253Y7337856D01*
X4217873Y7326172D01*
X4226966Y7315504D01*
X4237278Y7306106D01*
X4248759Y7298131D01*
X4261154Y7291679D01*
X4274261Y7286853D01*
X4287875Y7283703D01*
G37*

%LPD*%
G36*
X5778500Y8911793D02*
G01*
X5774436Y8912606D01*
X5771032Y8915044D01*
X5765698Y8923883D01*
X5761583Y8927998D01*
X5752744Y8933332D01*
X5750306Y8936736D01*
X5749493Y8940800D01*
X5750306Y8944864D01*
X5752744Y8948267D01*
X5761583Y8953601D01*
X5765698Y8957716D01*
X5771032Y8966555D01*
X5774436Y8968994D01*
X5778500Y8969806D01*
X5782564Y8968994D01*
X5785967Y8966555D01*
X5791301Y8957716D01*
X5795416Y8953601D01*
X5804255Y8948267D01*
X5806694Y8944864D01*
X5807506Y8940800D01*
X5806694Y8936736D01*
X5804255Y8933332D01*
X5795416Y8927998D01*
X5791301Y8923883D01*
X5785967Y8915044D01*
X5782564Y8912606D01*
G37*

%LPD*%
G36*
X2730500Y8911793D02*
G01*
X2726436Y8912606D01*
X2723032Y8915044D01*
X2717698Y8923883D01*
X2713583Y8927998D01*
X2704744Y8933332D01*
X2702306Y8936736D01*
X2701493Y8940800D01*
X2702306Y8944864D01*
X2704744Y8948267D01*
X2713583Y8953601D01*
X2717698Y8957716D01*
X2723032Y8966555D01*
X2726436Y8968994D01*
X2730500Y8969806D01*
X2734564Y8968994D01*
X2737967Y8966555D01*
X2743301Y8957716D01*
X2747416Y8953601D01*
X2756255Y8948267D01*
X2758694Y8944864D01*
X2759506Y8940800D01*
X2758694Y8936736D01*
X2756255Y8933332D01*
X2747416Y8927998D01*
X2743301Y8923883D01*
X2737967Y8915044D01*
X2734564Y8912606D01*
G37*

%LPD*%
G36*
X3746500Y8911793D02*
G01*
X3742436Y8912606D01*
X3739032Y8915044D01*
X3733698Y8923883D01*
X3729583Y8927998D01*
X3720744Y8933332D01*
X3718306Y8936736D01*
X3717493Y8940800D01*
X3718306Y8944864D01*
X3720744Y8948267D01*
X3729583Y8953601D01*
X3733698Y8957716D01*
X3739032Y8966555D01*
X3742436Y8968994D01*
X3746500Y8969806D01*
X3750564Y8968994D01*
X3753967Y8966555D01*
X3759301Y8957716D01*
X3763416Y8953601D01*
X3772255Y8948267D01*
X3774694Y8944864D01*
X3775506Y8940800D01*
X3774694Y8936736D01*
X3772255Y8933332D01*
X3763416Y8927998D01*
X3759301Y8923883D01*
X3753967Y8915044D01*
X3750564Y8912606D01*
G37*

%LPD*%
G36*
X5524500Y8911793D02*
G01*
X5520436Y8912606D01*
X5517032Y8915044D01*
X5511698Y8923883D01*
X5507583Y8927998D01*
X5498744Y8933332D01*
X5496306Y8936736D01*
X5495493Y8940800D01*
X5496306Y8944864D01*
X5498744Y8948267D01*
X5507583Y8953601D01*
X5511698Y8957716D01*
X5517032Y8966555D01*
X5520436Y8968994D01*
X5524500Y8969806D01*
X5528564Y8968994D01*
X5531967Y8966555D01*
X5537301Y8957716D01*
X5541416Y8953601D01*
X5550255Y8948267D01*
X5552694Y8944864D01*
X5553506Y8940800D01*
X5552694Y8936736D01*
X5550255Y8933332D01*
X5541416Y8927998D01*
X5537301Y8923883D01*
X5531967Y8915044D01*
X5528564Y8912606D01*
G37*

%LPD*%
G36*
X4508500Y8911793D02*
G01*
X4504436Y8912606D01*
X4501032Y8915044D01*
X4495698Y8923883D01*
X4491583Y8927998D01*
X4482744Y8933332D01*
X4480306Y8936736D01*
X4479493Y8940800D01*
X4480306Y8944864D01*
X4482744Y8948267D01*
X4491583Y8953601D01*
X4495698Y8957716D01*
X4501032Y8966555D01*
X4504436Y8968994D01*
X4508500Y8969806D01*
X4512564Y8968994D01*
X4515967Y8966555D01*
X4521301Y8957716D01*
X4525416Y8953601D01*
X4534255Y8948267D01*
X4536694Y8944864D01*
X4537506Y8940800D01*
X4536694Y8936736D01*
X4534255Y8933332D01*
X4525416Y8927998D01*
X4521301Y8923883D01*
X4515967Y8915044D01*
X4512564Y8912606D01*
G37*

%LPD*%
G36*
X6032500Y8911793D02*
G01*
X6028436Y8912606D01*
X6025032Y8915044D01*
X6019698Y8923883D01*
X6015583Y8927998D01*
X6006744Y8933332D01*
X6004306Y8936736D01*
X6003493Y8940800D01*
X6004306Y8944864D01*
X6006744Y8948267D01*
X6015583Y8953601D01*
X6019698Y8957716D01*
X6025032Y8966555D01*
X6028436Y8968994D01*
X6032500Y8969806D01*
X6036564Y8968994D01*
X6039967Y8966555D01*
X6045301Y8957716D01*
X6049416Y8953601D01*
X6058255Y8948267D01*
X6060694Y8944864D01*
X6061506Y8940800D01*
X6060694Y8936736D01*
X6058255Y8933332D01*
X6049416Y8927998D01*
X6045301Y8923883D01*
X6039967Y8915044D01*
X6036564Y8912606D01*
G37*

%LPD*%
G36*
X3492500Y8911793D02*
G01*
X3488436Y8912606D01*
X3485032Y8915044D01*
X3479698Y8923883D01*
X3475583Y8927998D01*
X3466744Y8933332D01*
X3464306Y8936736D01*
X3463493Y8940800D01*
X3464306Y8944864D01*
X3466744Y8948267D01*
X3475583Y8953601D01*
X3479698Y8957716D01*
X3485032Y8966555D01*
X3488436Y8968994D01*
X3492500Y8969806D01*
X3496564Y8968994D01*
X3499967Y8966555D01*
X3505301Y8957716D01*
X3509416Y8953601D01*
X3518255Y8948267D01*
X3520694Y8944864D01*
X3521506Y8940800D01*
X3520694Y8936736D01*
X3518255Y8933332D01*
X3509416Y8927998D01*
X3505301Y8923883D01*
X3499967Y8915044D01*
X3496564Y8912606D01*
G37*

%LPD*%
G36*
X5270500Y8911793D02*
G01*
X5266436Y8912606D01*
X5263032Y8915044D01*
X5257698Y8923883D01*
X5253583Y8927998D01*
X5244744Y8933332D01*
X5242306Y8936736D01*
X5241493Y8940800D01*
X5242306Y8944864D01*
X5244744Y8948267D01*
X5253583Y8953601D01*
X5257698Y8957716D01*
X5263032Y8966555D01*
X5266436Y8968994D01*
X5270500Y8969806D01*
X5274564Y8968994D01*
X5277967Y8966555D01*
X5283301Y8957716D01*
X5287416Y8953601D01*
X5296255Y8948267D01*
X5298694Y8944864D01*
X5299506Y8940800D01*
X5298694Y8936736D01*
X5296255Y8933332D01*
X5287416Y8927998D01*
X5283301Y8923883D01*
X5277967Y8915044D01*
X5274564Y8912606D01*
G37*

%LPD*%
G36*
X2984500Y8911793D02*
G01*
X2980436Y8912606D01*
X2977032Y8915044D01*
X2971698Y8923883D01*
X2967583Y8927998D01*
X2958744Y8933332D01*
X2956306Y8936736D01*
X2955493Y8940800D01*
X2956306Y8944864D01*
X2958744Y8948267D01*
X2967583Y8953601D01*
X2971698Y8957716D01*
X2977032Y8966555D01*
X2980436Y8968994D01*
X2984500Y8969806D01*
X2988564Y8968994D01*
X2991967Y8966555D01*
X2997301Y8957716D01*
X3001416Y8953601D01*
X3010255Y8948267D01*
X3012694Y8944864D01*
X3013506Y8940800D01*
X3012694Y8936736D01*
X3010255Y8933332D01*
X3001416Y8927998D01*
X2997301Y8923883D01*
X2991967Y8915044D01*
X2988564Y8912606D01*
G37*

%LPD*%
G36*
X4000500Y8911793D02*
G01*
X3996436Y8912606D01*
X3993032Y8915044D01*
X3987698Y8923883D01*
X3983583Y8927998D01*
X3974744Y8933332D01*
X3972306Y8936736D01*
X3971493Y8940800D01*
X3972306Y8944864D01*
X3974744Y8948267D01*
X3983583Y8953601D01*
X3987698Y8957716D01*
X3993032Y8966555D01*
X3996436Y8968994D01*
X4000500Y8969806D01*
X4004564Y8968994D01*
X4007967Y8966555D01*
X4013301Y8957716D01*
X4017416Y8953601D01*
X4026255Y8948267D01*
X4028694Y8944864D01*
X4029506Y8940800D01*
X4028694Y8936736D01*
X4026255Y8933332D01*
X4017416Y8927998D01*
X4013301Y8923883D01*
X4007967Y8915044D01*
X4004564Y8912606D01*
G37*

%LPD*%
G36*
X4254500Y8911793D02*
G01*
X4250436Y8912606D01*
X4247032Y8915044D01*
X4241698Y8923883D01*
X4237583Y8927998D01*
X4228744Y8933332D01*
X4226306Y8936736D01*
X4225493Y8940800D01*
X4226306Y8944864D01*
X4228744Y8948267D01*
X4237583Y8953601D01*
X4241698Y8957716D01*
X4247032Y8966555D01*
X4250436Y8968994D01*
X4254500Y8969806D01*
X4258564Y8968994D01*
X4261967Y8966555D01*
X4267301Y8957716D01*
X4271416Y8953601D01*
X4280255Y8948267D01*
X4282694Y8944864D01*
X4283506Y8940800D01*
X4282694Y8936736D01*
X4280255Y8933332D01*
X4271416Y8927998D01*
X4267301Y8923883D01*
X4261967Y8915044D01*
X4258564Y8912606D01*
G37*

%LPD*%
G36*
X4762500Y8911793D02*
G01*
X4758436Y8912606D01*
X4755032Y8915044D01*
X4749698Y8923883D01*
X4745583Y8927998D01*
X4736744Y8933332D01*
X4734306Y8936736D01*
X4733493Y8940800D01*
X4734306Y8944864D01*
X4736744Y8948267D01*
X4745583Y8953601D01*
X4749698Y8957716D01*
X4755032Y8966555D01*
X4758436Y8968994D01*
X4762500Y8969806D01*
X4766564Y8968994D01*
X4769967Y8966555D01*
X4775301Y8957716D01*
X4779416Y8953601D01*
X4788255Y8948267D01*
X4790694Y8944864D01*
X4791506Y8940800D01*
X4790694Y8936736D01*
X4788255Y8933332D01*
X4779416Y8927998D01*
X4775301Y8923883D01*
X4769967Y8915044D01*
X4766564Y8912606D01*
G37*

%LPD*%
G36*
X6286500Y8911793D02*
G01*
X6282436Y8912606D01*
X6279032Y8915044D01*
X6273698Y8923883D01*
X6269583Y8927998D01*
X6260744Y8933332D01*
X6258306Y8936736D01*
X6257493Y8940800D01*
X6258306Y8944864D01*
X6260744Y8948267D01*
X6269583Y8953601D01*
X6273698Y8957716D01*
X6279032Y8966555D01*
X6282436Y8968994D01*
X6286500Y8969806D01*
X6290564Y8968994D01*
X6293967Y8966555D01*
X6299301Y8957716D01*
X6303416Y8953601D01*
X6312255Y8948267D01*
X6314694Y8944864D01*
X6315506Y8940800D01*
X6314694Y8936736D01*
X6312255Y8933332D01*
X6303416Y8927998D01*
X6299301Y8923883D01*
X6293967Y8915044D01*
X6290564Y8912606D01*
G37*

%LPD*%
G36*
X5016500Y8911793D02*
G01*
X5012436Y8912606D01*
X5009032Y8915044D01*
X5003698Y8923883D01*
X4999583Y8927998D01*
X4990744Y8933332D01*
X4988306Y8936736D01*
X4987493Y8940800D01*
X4988306Y8944864D01*
X4990744Y8948267D01*
X4999583Y8953601D01*
X5003698Y8957716D01*
X5009032Y8966555D01*
X5012436Y8968994D01*
X5016500Y8969806D01*
X5020564Y8968994D01*
X5023967Y8966555D01*
X5029301Y8957716D01*
X5033416Y8953601D01*
X5042255Y8948267D01*
X5044694Y8944864D01*
X5045506Y8940800D01*
X5044694Y8936736D01*
X5042255Y8933332D01*
X5033416Y8927998D01*
X5029301Y8923883D01*
X5023967Y8915044D01*
X5020564Y8912606D01*
G37*

%LPD*%
G36*
X3238500Y8911793D02*
G01*
X3234436Y8912606D01*
X3231032Y8915044D01*
X3225698Y8923883D01*
X3221583Y8927998D01*
X3212744Y8933332D01*
X3210306Y8936736D01*
X3209493Y8940800D01*
X3210306Y8944864D01*
X3212744Y8948267D01*
X3221583Y8953601D01*
X3225698Y8957716D01*
X3231032Y8966555D01*
X3234436Y8968994D01*
X3238500Y8969806D01*
X3242564Y8968994D01*
X3245967Y8966555D01*
X3251301Y8957716D01*
X3255416Y8953601D01*
X3264255Y8948267D01*
X3266694Y8944864D01*
X3267506Y8940800D01*
X3266694Y8936736D01*
X3264255Y8933332D01*
X3255416Y8927998D01*
X3251301Y8923883D01*
X3245967Y8915044D01*
X3242564Y8912606D01*
G37*

%LPD*%
D10*
X3233447Y8813800D02*
G01*
X3233447Y8691854D01*
X4130956Y7794345D01*
X4321355Y7794345D01*
X4432302Y7683398D01*
X4432302Y7600569D01*
X4514471Y7518400D01*
X4686302Y7518400D01*
X4813302Y7391400D01*
X3111502Y8813800D02*
G01*
X3233447Y8813800D01*
X5143502Y9067800D02*
G01*
X5265447Y9067800D01*
X4635502Y8813800D02*
G01*
X4757447Y8813800D01*
X3111502Y9067800D02*
G01*
X3172487Y9067800D01*
D11*
G01*
X1587500Y8813800D03*
G01*
X1587500Y9067800D03*
G01*
X1841500Y8813800D03*
G01*
X1841500Y9067800D03*
G01*
X2095500Y8813800D03*
G01*
X2095500Y9067800D03*
G01*
X2349500Y8813800D03*
G01*
X2349500Y9067800D03*
G01*
X2603500Y8813800D03*
G01*
X2603500Y9067800D03*
G01*
X2857500Y8813800D03*
G01*
X2857500Y9067800D03*
G01*
X3111500Y8813800D03*
G01*
X3111500Y9067800D03*
G01*
X3365500Y8813800D03*
G01*
X3365500Y9067800D03*
G01*
X3619500Y8813800D03*
G01*
X3619500Y9067800D03*
G01*
X3873500Y8813800D03*
G01*
X3873500Y9067800D03*
G01*
X4127500Y8813800D03*
G01*
X4127500Y9067800D03*
G01*
X4381500Y8813800D03*
G01*
X4381500Y9067800D03*
G01*
X4635500Y8813800D03*
G01*
X4635500Y9067800D03*
G01*
X4889500Y8813800D03*
G01*
X4889500Y9067800D03*
G01*
X5143500Y8813800D03*
G01*
X5143500Y9067800D03*
G01*
X5397500Y8813800D03*
G01*
X5397500Y9067800D03*
G01*
X5651500Y8813800D03*
G01*
X5651500Y9067800D03*
G01*
X5905500Y8813800D03*
G01*
X5905500Y9067800D03*
G01*
X6159500Y8813800D03*
G01*
X6159500Y9067800D03*
G01*
X6413500Y8813800D03*
G01*
X6413500Y9067800D03*
D12*
G01*
X3289300Y7391400D03*
G01*
X3289300Y7645400D03*
G01*
X3797300Y7391400D03*
G01*
X3797300Y7645400D03*
G01*
X4051300Y7391400D03*
G01*
X4051300Y7645400D03*
G01*
X4305300Y7391400D03*
G01*
X4305300Y7645400D03*
G01*
X4559300Y7391400D03*
G01*
X4559300Y7645400D03*
G01*
X3035300Y7391400D03*
G01*
X3035300Y7645400D03*
G01*
X3543300Y7391400D03*
G01*
X3543300Y7645400D03*
G01*
X4813300Y7391400D03*
D13*
G01*
X4813300Y7645400D03*
M02*
